<?xml version="1.0" encoding="utf-8"?>
<!-- Generator: Adobe Illustrator 17.1.0, SVG Export Plug-In . SVG Version: 6.00 Build 0)  -->
<!DOCTYPE svg PUBLIC "-//W3C//DTD SVG 1.1//EN" "http://www.w3.org/Graphics/SVG/1.1/DTD/svg11.dtd">
<svg version="1.1" id="Layer_1" xmlns="http://www.w3.org/2000/svg" xmlns:xlink="http://www.w3.org/1999/xlink" x="0px" y="0px"
	 viewBox="0 0 388 440" enable-background="new 0 0 388 440" xml:space="preserve">
<circle fill="#F2AE16" stroke="#000000" stroke-width="4" stroke-miterlimit="10" cx="194.8" cy="245.8" r="188"/>
<path fill="#FF2727" d="M242.4,43.5l-36.2-17.9c-0.5,1.1-0.9,2.2-1.4,3.3l36.1,17.8C241.3,45.7,241.8,44.6,242.4,43.5z"/>
<g>
	<path fill="#FFFFFF" stroke="#000000" stroke-width="4" stroke-miterlimit="10" d="M195,32.3c-0.3-0.6-0.1-1.4,0.2-2
		c2.4-5.3,5-10.7,9.1-14.8c0.3-0.3,0.7-0.7,1.2-0.8c0.5-0.1,1.1,0.2,1.5,0.5c6.2,3.7,12.3,7.5,18.5,11.2c4.3,2.6,8.6,5.3,12.6,8.4
		c3.1,2.5,6,5.4,7.1,9.2c1.1,3.8-0.4,8.5-4,10c-2.7,1.1-5.7,0.2-8.5-0.6c-5.6-1.8-11.3-3.6-16.4-6.6c-4.1-2.5-7.7-5.7-11.6-8.5
		c-2.7-2-5.6-3.7-8.6-5.2C195.6,32.9,195.2,32.7,195,32.3z"/>
	<path fill="#FFFFFF" stroke="#000000" stroke-width="4" stroke-miterlimit="10" d="M186.1,51.6c-1.8,1.7-2.5,4.4-3,6.8
		c-2.9,13.6-4.7,27.3-5.6,41.2c-7.7,2-15.5,4-23.2,6c2.4-22,6.5-43.9,12.1-65.3C173.2,43.5,179.8,47.3,186.1,51.6z"/>
	<path fill="#FFFFFF" stroke="#000000" stroke-width="4" stroke-miterlimit="10" d="M170.1,30.2c-1,0-2,0-3,0c0,1.5,0.1,3,0.1,4.5
		c0,0.6-1.1,1.1-0.8,0.5c0.9,1.4,1.8,2.9,2.7,4.3c-1.2,0.1-2.4,0.1-3.7,0.2c4.1,2.4,8.2,4.7,12.3,7.1c4.4,2.5,9,5.2,14,5.5
		c1.4,0.2,1.4-2.2,0.3-3.2s-2.8-1.5-3-3c1.5,0.6,3.3,0.6,4.8,0c-0.3-0.9-0.5-1.8-0.8-2.8c1.3,0,2.6,0.3,3.7,0.8
		c-0.4-1.8-0.8-3.5-1.2-5.3c-0.6,1.1,1.3,2.1,2.2,1.4c1-0.8,1-2.2,0.7-3.4c-0.3-1.2-0.7-2.4-0.4-3.6c1.5,1.9,2.3,4.3,2.4,6.7
		c2.6-0.7,2.7-4.2,2.7-6.8c-0.1-5.2,1-10.5,3.3-15.2c-1.4-0.4-3,0.2-3.9,1.3c-0.4-1.5-0.8-2.9-1.1-4.4c0.2,1.3-1.9,1.3-3,0.7
		c-1-0.5-2.1-1.1-3.1-1.6c0.5,0.4,0.1,1.4-0.5,1.6c-0.6,0.2-1.3-0.1-1.9-0.4c-1.3-0.8-2.4-1.8-3.3-3c-0.3,1.6-0.6,3.1-0.8,4.7
		c-3-1.8-6.2-3.3-9.4-4.7c0.2,0.9,0.5,1.8,0.7,2.7c-1.6,0-1.5,3,0.1,3c-1.4,0-2.8,0-4.3,0.1c0.5,0.4,1,0.8,1.5,1.2
		c-1.4,0.4-2.9,0.5-4.4,0.3c0.2,1.2,1,2.3,2,2.9c-1.1,0.6-2.3,0.9-3.6,0.8c0.3,0.9,0.5,1.9,0.8,2.8c-1,0-2,0-3,0
		C169.6,27.4,169.9,28.8,170.1,30.2z"/>
</g>
<path fill="#E5EF14" stroke="#000000" stroke-width="4" stroke-miterlimit="10" d="M91.7,152.9c-2.7,1.7-5.5,3.7-7.1,6.5
	c-1.9,3.5-1.6,7.8-1.2,11.9c7.1,73,23.2,145,47.9,214.1c1.7,4.8,3.5,9.7,6.9,13.5c2.9,3.2,6.7,5.5,10.6,7.3
	c27.5,12.9,59.8,8.1,89.5,1.7c10.6-2.3,22.1-5.5,28-14.5c3.9-5.9,4.6-13.4,5.1-20.5c5-78.2-7.5-157.1,1.5-234.9
	C214.8,113.4,144.9,119.1,91.7,152.9z"/>
<path fill="#B7B7B7" stroke="#000000" stroke-width="4" stroke-miterlimit="10" d="M62.3,174.1c5.5,4.1,12.8,5.9,19.5,4.7
	c-5.9-5.6,1.1-15,7.9-19.4c40.7-26,90.9-32.7,139.3-32.5c10.3,0.1,21,0.5,30.3,4.9c9.3,4.4,17.1,13.7,16.5,24
	c8.7-7.8,6.3-23-2.1-31.2s-20.5-11-32.1-12.9c-54-8.8-111.9-3.9-158.9,24.1c-6.9,4.1-13.6,8.8-18.1,15.5
	C60.3,158.1,58.6,167,62.3,174.1z"/>
<path stroke="#000000" stroke-miterlimit="10" d="M133.9,161.7c1.6,0.3,3.1,0.9,4.7,0.7c4.2-0.5,5.6-6.7,3.1-10.1
	c-2.5-3.4-7.2-4.4-11.5-4.6c-7.5-0.2-15.8,2.1-20,8.4c-5.4,8.3-1.6,19.3-2.8,29.2c2.1-6.1,4.7-12.3,9-17.1
	C120.9,163.5,127.6,160.3,133.9,161.7z"/>
<path stroke="#000000" stroke-miterlimit="10" d="M244.2,155.4c-2.4-12.1-14.9-21.3-27.2-20.1c-12.3,1.2-22.7,12.7-22.7,25
	c3.7-3.8,7.6-7.7,12.7-9C219.5,148.2,233.2,162,244.2,155.4z"/>
<path stroke="#000000" stroke-width="4" stroke-miterlimit="10" d="M187.8,362.8c-5.1,0.5-11,0.6-14.4-3.1c-3.4-3.7-3-9.4-2.7-14.5
	c0.8-14.9-2-30.4-10.7-42.5c-6.9-9.6-17.5-17.4-19.5-29.1c18.4,8.3,39.7,13,58.8,6.3c21.2-7.4,35.4-27,47.9-45.7
	c-3.3,28-3.7,56.3-1.3,84.3c0.9,10.5,1.6,22.8-6.2,29.8c-3.1,2.8-7.2,4.3-11.2,5.7C215.3,358.4,201.6,361.4,187.8,362.8z"/>
<path fill="#BA1919" stroke="#000000" stroke-miterlimit="10" d="M234.7,318.7c2.7-0.3,5.5-0.3,7.9,0.9c2.4,1.2,4.1,4.1,3.3,6.6
	c-0.4,1.2-1.2,2.1-2,3c-16.5,17.9-39,30.3-63,34.5c0.7-9.5,1.8-18.9,3.4-28.2c0.5-3.1,1.2-6.4,3.2-8.7c2.6-2.9,6.6-3.8,10.4-4.5
	c3-0.6,6.3-1.1,9.1,0.2c2.8,1.3,4.4,5.4,2.2,7.6C216.2,323.8,225.3,319.7,234.7,318.7z"/>
<path fill="none" stroke="#000000" stroke-miterlimit="10" d="M219.9,267.1c0-0.2,0-0.3,0-0.5"/>
<path fill="#FFFFFF" stroke="#000000" stroke-width="4" stroke-miterlimit="10" d="M184.8,364.9c-0.3-4.2-0.7-8.5,0.7-12.4
	c1.4-3.9,4.9-7.5,9-7.5c3.9,0,7.5,3.5,7.6,7.4c-0.2-2.8,0-6.3,2.6-7.6c2.7-1.4,5.9,1.1,7.1,3.9s1.1,6,2.3,8.8
	c-1.3-4.6-2.2-10.4,1.5-13.5c2.3-2,5.8-2,8.6-1c2.8,1.1,5.2,3.1,7.5,5.1c-1.1-0.2-2.2-0.3-3.2-0.5c-1.5-2.7-3-6.2-1.2-8.7
	c1.4-2,4.2-2.4,6.5-1.6c2.3,0.8,4,2.7,5.5,4.6c-2.1-5.5,2.7-12.4,8.7-12.4c1.9,10.2-6.5,19.5-15.4,24.9
	c-14.3,8.7-31.5,12.5-48.1,10.4C184.5,361,185.2,368.6,184.8,364.9z"/>
<path fill="none" stroke="#000000" stroke-width="3" stroke-miterlimit="10" d="M133.5,264.8c-4.2,2.6-7.2,6.8-8.3,11.6"/>
<path fill="none" stroke="#000000" stroke-width="2" stroke-miterlimit="10" d="M120.2,261.1c-1.7,0.5-2.9,2.1-2.9,3.8"/>
<path fill="none" stroke="#000000" stroke-width="3" stroke-miterlimit="10" d="M148.8,357.3c0.7,9.2,10.4,14.9,19.1,17.9
	c17.4,6.1,37.6,8.5,53.9-0.2c20.3-10.8,29.1-34.8,44.3-52"/>
<path fill="#FFFFFF" stroke="#000000" stroke-width="4" stroke-miterlimit="10" d="M184.6,192.2c-0.1-7.5,0.4-15.7,5.5-21.3
	c3.7-4.1,9.3-5.9,14.7-7c7.3-1.4,15.5-1.6,21.5,2.7c8.3,5.9,9.5,17.5,9.9,27.7c0.5,10.3,0.9,20.7,1.4,31c0.2,5.5,2.3,12.8,7.8,12.6
	c-36.4-7-75.2-1.1-107.8,16.5c-6.1-25.4-12.2-52.3-4.8-77.3c8.7-7.1,22.6-2.1,29,7.1s7.1,21,7.7,32.2c0.4,8.8,0.9,17.6,1.3,26.4
	c5.9-1.4,11.8-2.9,17.7-4.3C186,223.1,184.7,207.7,184.6,192.2z"/>
<path stroke="#000000" stroke-miterlimit="10" d="M155.8,246c-2.8,1.4-5.6,2.8-8.4,4.2c-2.9-5.5-3.4-12-3.9-18.2
	c-0.4-5.2-0.8-10.5-1.1-15.7c-0.3-4.8-0.7-9.7-0.1-14.5c0.3-2.2,0.7-4.5,2-6.4c1.3-1.9,3.4-3.3,5.7-3.1c2.5,0.2,4.5,2.2,5.4,4.5
	c0.9,2.3,1,4.8,1.1,7.3c0.3,13.3,0.5,26.6,0.8,39.9c0,0.4,0,0.7-0.1,1C156.8,245.5,156.3,245.8,155.8,246z"/>
<path stroke="#000000" stroke-miterlimit="10" d="M213.8,230.6c-2.8,1.4-5.6,2.8-8.4,4.2c-2.9-5.5-3.4-12-3.9-18.2
	c-0.4-5.2-0.8-10.5-1.1-15.7c-0.3-4.8-0.7-9.7-0.1-14.5c0.3-2.2,0.7-4.5,2-6.4c1.3-1.9,3.4-3.3,5.7-3.1c2.5,0.2,4.5,2.2,5.4,4.5
	c0.9,2.3,1,4.8,1.1,7.3c0.3,13.3,0.5,26.6,0.8,39.9c0,0.4,0,0.7-0.1,1C214.8,230,214.2,230.3,213.8,230.6z"/>
<path fill="#FFFFFF" d="M152,215.3c-3.8,2-7.7,4-11.5,6c-0.6-2.4-0.7-4.9-0.4-7.4C144.1,213.4,148.2,213.9,152,215.3z"/>
<path fill="#FFFFFF" d="M210.2,206.5c-3.8,2-7.7,4-11.5,6c-0.6-2.4-0.7-4.9-0.4-7.4C202.3,204.6,206.4,205.1,210.2,206.5z"/>
<path fill="none" stroke="#000000" stroke-width="2" stroke-miterlimit="10" d="M250.4,224c0.6-0.5,1.5-0.2,1.9,0.5
	c0.4,0.7,0.3,1.5,0.1,2.2"/>
<path fill="#FFFFFF" d="M257.8,212.9c-0.6,11-1.3,21.9-1.9,32.9c6.6-4.8,7.3-14.2,7.4-22.3c0.1-8.5,0.2-17,0.4-25.5
	c0.2-15.9-0.2-33.5-11.2-45C260,171.7,259,192.7,257.8,212.9z"/>
<path fill="#FFFFFF" d="M138.3,370.8c4.6,9.4,9.8,18.5,15.4,27.2c-3.9,2.6-9.5,0.3-12-3.6s-2.8-8.9-3-13.5
	C138.5,377.5,138.4,374.2,138.3,370.8z"/>
<path fill="#FFFFFF" d="M254.9,373.3c-1.6,2.2-3.5,4.3-5.2,6.5c-3.4,4.5-6.1,9.6-7.8,14.9c5.4,1.7,10.7-2.8,14.6-6.9
	c1.2-1.3,2.4-2.6,3.3-4.1c1.3-2.3,1.8-4.9,2.1-7.5c1.1-8,1.4-16.2,0.9-24.2C262.3,359.6,259.5,367.1,254.9,373.3z"/>
<path fill="#777777" stroke="#000000" stroke-width="4" stroke-miterlimit="10" d="M125.8,119.5c-1-4.4,0.2-9.3,3.1-12.7
	c9.5-0.9,20.3-4.1,29.7-5c15.9-1.4,31.9-2.8,47.7-1.2c3,0.3,6.8,1.5,7,4.5c0.1,2.1-1.8,3.9-3.8,4.4c-2.1,0.5-4.2,0-6.3-0.4
	C177.8,104.2,150.8,112.4,125.8,119.5z"/>
<path fill="#FF2727" d="M168.1,100l6.3-53.6l-3.6-0.4l-6.3,53.8C165.7,99.8,166.9,99.9,168.1,100z"/>
<path fill="#FFFFFF" stroke="#000000" stroke-width="4" stroke-miterlimit="10" d="M234.5,294.3c0.5-7-1.2-14.1-4.6-20.2
	c1.6,4.8,4.2,9.3,7.7,13c2.2,0.6,4.4-1.2,5.2-3.3c0.7-2.1,0.3-4.5-0.1-6.7c-1.9-10-3.8-19.9-5.7-29.9c0.2,4.3-4.6,6.7-8.1,9.2
	c-6.4,4.5-10,12.2-16.1,17.1c-6.7,5.4-15.6,7.1-24.1,8.5c-7.9,1.4-15.8,2.7-23.6,4.1c-0.1,9.4,4.4,18.8,11.8,24.6
	c4.6-0.7,7.5-6.6,5.2-10.6c-0.3,6.8,7.3,12.6,13.8,10.6c1.1-0.3,2.1-0.9,2.8-1.7c1-1.2,1.2-2.9,1.3-4.5c0.4-6.2,0.1-12.4-1-18.5
	c-0.2,5.6,0,11.7,3.2,16.3s10.2,7.1,14.7,3.7c4.5-3.5,4-10.4,3.1-16.1c-0.5-3-1-6-1.5-8.9c0.2,4.5,1,9.3,4.1,12.6
	C225.6,296.7,231.5,297.7,234.5,294.3z"/>
<g>
	
		<image overflow="visible" opacity="0.19" width="252" height="182" xlink:href="5AD8FB7366050D19.png"  transform="matrix(1 0 0 1 -137 -161)">
	</image>
</g>
<g>
	
		<image overflow="visible" opacity="0.19" width="347" height="183" xlink:href="5AD8FB7366050D1A.png"  transform="matrix(1 0 0 1 282 -164)">
	</image>
</g>
<path fill="#FF2727" d="M206.6,25.2l34.7,20.2l1.6-3.2L208,21.9C207.5,23,207.1,24.1,206.6,25.2z"/>
</svg>
